<?xml version="1.0" encoding="UTF-8" standalone="no"?>
<svg width="456" height="456" viewBox="0 0 456 456" xmlns="http://www.w3.org/2000/svg">
  <svg x="28" y="28" width="400" height="400" viewBox="0 0 128 128">
    <path fill="#FFFFFF" d="M11.95 24.348c-5.836 0-10.618 4.867-10.618 10.681v57.942c0 5.814 4.782 10.681 10.617 10.681h104.102c5.835 0 10.617-4.867 10.617-10.681V35.03c0-5.814-4.783-10.681-10.617-10.681H14.898l-.002-.002H11.95zm-.007 9.543h104.108c.625 0 1.076.423 1.076 1.14v57.94c0 .717-.453 1.14-1.076 1.14H11.949c-.623 0-1.076-.423-1.076-1.14V35.029c0-.715.451-1.135 1.07-1.138z"/>
    <path fill="#FFFFFF" d="M20.721 43.9V84.1H32.42l11.697-14.78L55.81 84.1h11.696v-40.2H55.81V66.956l-11.694-14.78-11.698 14.78V43.9H20.722zM93.825 84.1L76.28 64.591h11.697V43.9h11.698v20.69h11.698z"/>
  </svg>
</svg>
